# Blender v2.91.0 OBJ File: ''
# www.blender.org
mtllib textured.mtl
o Icosphere
v 0.438944 0.164340 0.825266
v 0.931593 0.099609 -0.151514
v -0.148593 -0.729857 0.588194
v 0.344056 -0.794588 -0.388586
v -0.344056 0.794588 0.388586
v 0.148593 0.729857 -0.588194
v -0.931593 -0.099609 0.151514
v -0.438944 -0.164340 -0.825266
vt 0.625000 0.000000
vt 0.375000 0.250000
vt 0.375000 0.000000
vt 0.625000 0.250000
vt 0.375000 0.500000
vt 0.375000 0.250000
vt 0.625000 0.250000
vt 0.625000 0.500000
vt 0.977637 0.942780
vt 0.040473 0.005615
vt 0.977637 0.005615
vt 0.791291 0.793854
vt 0.077139 0.079702
vt 0.791291 0.079702
vt 0.934430 0.981897
vt 0.016323 0.063790
vt 0.934430 0.063790
vt 0.926954 0.948227
vt 0.180963 0.202236
vt 0.926954 0.202236
vt 0.040473 0.942780
vt 0.077139 0.793854
vt 0.016323 0.981897
vt 0.180963 0.948227
vn -0.4495 0.0591 0.8913
vn 0.4495 -0.0591 -0.8913
vn -0.5361 -0.8159 -0.2163
vn 0.7145 -0.5751 0.3985
vn 0.5361 0.8159 0.2163
vn -0.7145 0.5751 -0.3985
usemtl Material.002
s off
f 5/1/1 3/2/1 1/3/1
f 2/4/2 8/5/2 6/6/2
f 5/1/1 7/7/1 3/2/1
f 2/4/2 4/8/2 8/5/2
usemtl Material.001
f 3/9/3 8/10/3 4/11/3
f 1/12/4 4/13/4 2/14/4
f 5/15/5 2/16/5 6/17/5
f 7/18/6 6/19/6 8/20/6
f 3/9/3 7/21/3 8/10/3
f 1/12/4 3/22/4 4/13/4
f 5/15/5 1/23/5 2/16/5
f 7/18/6 5/24/6 6/19/6
